<svg width="99" height="35" viewBox="0 0 99 35" fill="none" xmlns="http://www.w3.org/2000/svg">
<path d="M10.9182 34.9125C7.96905 34.7965 5.55616 33.9975 3.66948 32.5135C3.30942 32.23 2.45142 31.38 2.16357 31.0215C1.39849 30.069 0.878346 29.142 0.531411 28.1135C-0.536159 24.9475 0.0132813 20.793 2.10297 16.2335C3.89219 12.33 6.65302 8.45851 11.4697 3.09651C12.1792 2.30751 14.2922 0 14.3058 0C14.3108 0 14.1957 0.197504 14.0508 0.438004C12.7984 2.515 11.7268 4.9615 11.143 7.0795C10.2052 10.478 10.3183 13.3945 11.4743 15.656C12.2716 17.214 13.6387 18.5635 15.1759 19.3095C17.867 20.615 21.8071 20.723 26.6187 19.6255C26.95 19.5495 43.3655 15.235 63.0979 10.0375C82.8302 4.83951 98.9776 0.590006 98.9801 0.593506C98.9857 0.598006 53.1363 20.023 29.3351 30.1005C25.5658 31.696 24.5578 32.099 22.7857 32.715C18.2559 34.29 14.1982 35.0415 10.9182 34.9125Z" fill="#EAEAEA"/>
</svg>
