<svg width="20" height="18" viewBox="0 0 20 18" fill="none" xmlns="http://www.w3.org/2000/svg">
<path d="M19.8675 8.38732C19.0612 6.6886 18.1017 5.3032 16.9889 4.23112L15.8219 5.39816C16.7735 6.30762 17.6025 7.49736 18.3193 8.9791C16.4109 12.9289 13.702 14.8051 9.99999 14.8051C8.88876 14.8051 7.86523 14.634 6.9294 14.2918L5.66488 15.5563C6.96465 16.1565 8.40968 16.4566 9.99999 16.4566C14.4085 16.4566 17.6977 14.1606 19.8675 9.56858C19.9548 9.3839 20 9.1822 20 8.97795C20 8.77371 19.9548 8.572 19.8675 8.38732ZM18.4094 1.03277L17.4316 0.0538171C17.4146 0.0367562 17.3943 0.0232218 17.372 0.0139874C17.3498 0.0047531 17.3259 0 17.3018 0C17.2777 0 17.2538 0.0047531 17.2315 0.0139874C17.2092 0.0232218 17.189 0.0367562 17.172 0.0538171L14.6633 2.5613C13.2802 1.85484 11.7258 1.50161 9.99999 1.50161C5.59148 1.50161 2.3023 3.79761 0.132451 8.38962C0.0452334 8.5743 0 8.776 0 8.98024C0 9.18449 0.0452334 9.38619 0.132451 9.57088C0.99932 11.3967 2.04296 12.8601 3.26336 13.9613L0.836161 16.3878C0.801775 16.4222 0.782458 16.4688 0.782458 16.5175C0.782458 16.5661 0.801775 16.6128 0.836161 16.6472L1.81535 17.6264C1.84975 17.6608 1.89641 17.6801 1.94505 17.6801C1.9937 17.6801 2.04035 17.6608 2.07476 17.6264L18.4094 1.29242C18.4265 1.27538 18.44 1.25514 18.4492 1.23286C18.4585 1.21059 18.4632 1.18671 18.4632 1.1626C18.4632 1.13848 18.4585 1.1146 18.4492 1.09233C18.44 1.07005 18.4265 1.04981 18.4094 1.03277ZM1.6807 8.9791C3.59136 5.02933 6.30023 3.15308 9.99999 3.15308C11.251 3.15308 12.3884 3.36777 13.4204 3.80426L11.8079 5.41674C11.0442 5.00929 10.1699 4.85808 9.31372 4.9854C8.45759 5.11272 7.66505 5.51184 7.05301 6.12387C6.44098 6.73591 6.04186 7.52845 5.91454 8.38458C5.78722 9.24071 5.93843 10.1151 6.34588 10.8787L4.43247 12.7922C3.37346 11.8575 2.46057 10.5911 1.6807 8.9791ZM7.33928 8.9791C7.33969 8.57464 7.43549 8.17597 7.61891 7.81549C7.80234 7.45501 8.0682 7.14288 8.39492 6.90446C8.72164 6.66604 9.09999 6.50804 9.49924 6.44332C9.89849 6.37859 10.3074 6.40895 10.6927 6.53194L7.46108 9.76355C7.38008 9.50995 7.33899 9.24531 7.33928 8.9791Z" fill="white"/>
<path d="M9.90831 11.5481C9.82895 11.5481 9.75073 11.5444 9.67321 11.5373L8.46167 12.7488C9.19036 13.0279 9.98428 13.0899 10.7475 12.9274C11.5106 12.7648 12.2104 12.3847 12.7622 11.833C13.3139 11.2812 13.694 10.5815 13.8566 9.81827C14.0191 9.05508 13.9571 8.26116 13.678 7.53247L12.4665 8.74401C12.4736 8.82154 12.4773 8.89975 12.4773 8.97911C12.4774 9.31652 12.4111 9.65066 12.2821 9.96242C12.153 10.2742 11.9638 10.5575 11.7252 10.796C11.4867 11.0346 11.2034 11.2238 10.8916 11.3529C10.5799 11.4819 10.2457 11.5482 9.90831 11.5481Z" fill="white"/>
</svg>
