<svg width="24" height="25" viewBox="0 0 24 25" fill="none" xmlns="http://www.w3.org/2000/svg">
<g id="person_24px">
<path id="icon/social/person_24px" fill-rule="evenodd" clip-rule="evenodd" d="M12 4.13794C9.79 4.13794 8 5.98966 8 8.27587C8 10.5621 9.79 12.4138 12 12.4138C14.21 12.4138 16 10.5621 16 8.27587C16 5.98966 14.21 4.13794 12 4.13794ZM14 8.27587C14 7.13794 13.1 6.2069 12 6.2069C10.9 6.2069 10 7.13794 10 8.27587C10 9.4138 10.9 10.3448 12 10.3448C13.1 10.3448 14 9.4138 14 8.27587ZM18 18.6207C17.8 17.8862 14.7 16.5517 12 16.5517C9.31 16.5517 6.23 17.8759 6 18.6207H18ZM4 18.6207C4 15.869 9.33 14.4828 12 14.4828C14.67 14.4828 20 15.869 20 18.6207V20.6897H4V18.6207Z" fill="white"/>
</g>
</svg>
